# xmcd
#
# Track frame offsets: 
#        150
#        11291
#        23664
#        35141
#        47507
#        60256
#        72328
#        83972
#        96372
#        109899
#        118999
#        131187
#        142986
#        155783
#        169207
#        179970
#
# Disc length: 2617 seconds
#
# Revision: 2
# Processed by: cddbd v1.5.2PL0 Copyright (c) Steve Scherf et al.
# Submitted via: ExactAudioCopy v1.0b3
#
DISCID=e70a3710
DTITLE=Various Artist - Romancing The '60's - Sealed With A Kiss, Dis
DTITLE=c 1 Of 2
DYEAR=2008
DGENRE=
TTITLE0=Marvin Gaye - Tammi Terrell - Ain't No Mountain High Enough
TTITLE1=The Temptations - My Girl
TTITLE2=Ruby and the Romantics - Our Day Will Come
TTITLE3=Smokey Robinson and the Miracles - Ooo Baby Bay
TTITLE4=The Supremes - Baby Love
TTITLE5=Sergio Mendes - Brasil '66 - The Look of Love
TTITLE6=Paul Mauriat and his Orchestra - Love is Blue
TTITLE7=Patsy Cline - the Jordannaires - Crazy
TTITLE8=The Mams and the Papas - Dedicated to the One I Love
TTITLE9=Tom Jones - It's Not Unusual
TTITLE10=Brenda Lee - I'm Sorry
TTITLE11=We Five - You Were on My Mind
TTITLE12=Dusty Springfield - You Don't Have to Say You Love Me
TTITLE13=Jimmy Ruffin - What Became of the Brokenhearted
TTITLE14=Bruce Channel - Hey! Baby
TTITLE15=The Righteous Brothers - Unchained Melody
EXTD=
EXTT0=
EXTT1=
EXTT2=
EXTT3=
EXTT4=
EXTT5=
EXTT6=
EXTT7=
EXTT8=
EXTT9=
EXTT10=
EXTT11=
EXTT12=
EXTT13=
EXTT14=
EXTT15=
PLAYORDER=
